<svg width="128" height="128" xmlns="http://www.w3.org/2000/svg" xml:space="preserve" version="1.1">
 <defs>
  <linearGradient y2="1.00089" x2="0.50003" y1="0.00635" x1="0.50003" id="SVGID_1_">
   <stop stop-color="#424242" offset="0.0032"/>
   <stop stop-color="#353535" offset="0.2705"/>
   <stop stop-color="#131313" offset="0.7639"/>
   <stop stop-color="#000000" offset="1"/>
  </linearGradient>
  <linearGradient y2="0.15553" x2="0.26132" y1="0.7931" x1="0.67612" id="SVGID_4_">
   <stop stop-color="#FFB300" offset="0"/>
   <stop stop-color="#FFCA28" offset="0.5"/>
  </linearGradient>
  <linearGradient y2="0.15566" x2="0.73837" y1="0.79323" x1="0.32356" id="SVGID_5_">
   <stop stop-color="#FFB300" offset="0"/>
   <stop stop-color="#FFCA28" offset="0.5"/>
  </linearGradient>
  <linearGradient y2="1.38417" x2="0.50004" y1="-0.00296" x1="0.50004" id="SVGID_6_">
   <stop stop-color="#4DD0E1" offset="0"/>
   <stop stop-color="#00BCD4" offset="1"/>
  </linearGradient>
  <linearGradient y2="1.25928" x2="0.49995" y1="-0.03107" x1="0.49995" id="SVGID_7_">
   <stop stop-color="#00BCD4" offset="0"/>
   <stop stop-color="#0097A7" offset="1"/>
  </linearGradient>
  <radialGradient gradientUnits="userSpaceOnUse" gradientTransform="matrix(1 0 0 -1.1282 0 138.3704)" r="38.0925" cy="80.9011" cx="63.9835" id="hairHighlights_1_">
   <stop stop-color="#6D4C41" stop-opacity="0" offset="0.7945"/>
   <stop stop-color="#6D4C41" offset="1"/>
  </radialGradient>
  <linearGradient y2="0.49997" x2="1.00088" y1="0.49997" x1="0.00634" id="svg_29">
   <stop stop-opacity="0.99609" stop-color="#000000" offset="0.0012"/>
   <stop stop-color="#212121" stop-opacity="0" offset="0.1"/>
   <stop stop-color="#212121" stop-opacity="0" offset="0.9"/>
   <stop stop-opacity="0.99609" stop-color="#000000" offset="1"/>
  </linearGradient>
  <linearGradient y2="1.00089" x2="0.50003" y1="0.00635" x1="0.50003" id="svg_30">
   <stop stop-opacity="0.99609" stop-color="#000000" offset="0.0012"/>
   <stop stop-color="#212121" stop-opacity="0" offset="0.15"/>
   <stop stop-color="#212121" stop-opacity="0" offset="0.7759"/>
   <stop stop-opacity="0.99609" stop-color="#000000" offset="1"/>
  </linearGradient>
 </defs>
 <g>
  <title>Layer 1</title>
  <g id="svg_1">
   <path id="svg_2" fill="url(#SVGID_1_)" d="m119.99,88.01l-112,0c-2.21,0 -4,-1.79 -4,-4l0,-72c0,-2.21 1.79,-4 4,-4l112,0c2.21,0 4,1.79 4,4l0,72c0,2.21 -1.79,4 -4,4z"/>
  </g>
  <path id="svg_3" opacity="0.3" fill="url(#svg_30)" d="m119.99,88.01l-112,0c-2.21,0 -4,-1.79 -4,-4l0,-72c0,-2.21 1.79,-4 4,-4l112,0c2.21,0 4,1.79 4,4l0,72c0,2.21 -1.79,4 -4,4z"/>
  <path id="svg_4" opacity="0.3" fill="url(#svg_29)" d="m120.01,88.01l-112,0c-2.21,0 -4,-1.79 -4,-4l0,-72c0,-2.21 1.79,-4 4,-4l112,0c2.21,0 4,1.79 4,4l0,72c0,2.21 -1.8,4 -4,4z"/>
  <g id="svg_5">
   <rect id="svg_6" fill="#76FF03" height="4" width="24" y="16.01" x="11.99"/>
   <rect id="svg_7" fill="#76FF03" height="4" width="16" y="16.01" x="85.99"/>
   <rect id="svg_8" fill="#76FF03" height="4" width="8" y="16.01" x="107.99"/>
   <rect id="svg_9" fill="#76FF03" height="4" width="8" y="28.01" x="19.99"/>
   <rect id="svg_10" fill="#76FF03" height="4" width="16" y="40.01" x="11.99"/>
   <rect id="svg_11" fill="#76FF03" height="4" width="8" y="52.01" x="11.99"/>
   <rect id="svg_12" fill="#76FF03" height="4" width="12" y="52.01" x="97.99"/>
   <rect id="svg_13" fill="#76FF03" height="4" width="12" y="40.01" x="103.99"/>
   <rect id="svg_14" fill="#76FF03" height="4" width="16" y="64.01" x="11.99"/>
   <rect id="svg_15" fill="#76FF03" height="4" width="20" y="64.01" x="95.99"/>
   <rect id="svg_16" fill="#76FF03" height="4" width="12" y="28.01" x="99.99"/>
  </g>
  <g id="sleeve_1_">
   <path id="svg_17" fill="#26A69A" d="m7.63,123.99l12.83,0c1.12,-0.09 2.01,-1.18 2.01,-2.52l0,-0.65c0,-3.58 -1.61,-6.71 -4.02,-8.45c0,0.15 0.01,0.3 0.01,0.45c0,4.1 -1.98,7.42 -4.41,7.42s-4.41,-3.32 -4.41,-7.42c0,-0.15 0.01,-0.3 0.01,-0.45c-2.41,1.75 -4.02,4.87 -4.02,8.45l0,0.65c-0.01,1.35 0.88,2.43 2,2.52z"/>
   <path id="svg_18" fill="#00796B" d="m14.04,120.25c9,0 4.41,-3.32 4.41,-7.42c0,-0.15 -0.01,-0.3 -0.01,-0.45c-1.28,-0.93 -2.79,-1.48 -4.4,-1.48s-3.12,0.55 -4.4,1.48c-0.01,0.15 -0.01,0.3 -0.01,0.45c-0.01,4.1 -4.63,7.42 4.41,7.42z"/>
  </g>
  <g id="hand_3_">
   <path id="svg_19" fill="url(#SVGID_4_)" d="m27.98,106.81c-0.11,-2.84 -2.23,-8.7 -5,-9.19c-0.17,-0.03 -0.32,-0.11 -0.41,-0.25c-0.44,-0.67 -1.85,-2.47 -4.43,-1.05c-0.96,0.53 -1.3,1 -1.14,1.68c-0.12,0.14 -0.34,0.31 -0.66,0.18c-1.04,-1.16 -2.32,-1.4 -3.81,-0.24c-1.69,1.32 -1.69,2.26 -1.39,3.19l-0.01,0.01c0,0 -0.07,0.65 -0.56,0.6c-0.51,-0.44 -1.12,-0.44 -2.09,0.26c-2.6,1.88 -1.53,3.66 -1.09,4.71c-0.06,0.1 -0.16,0.17 -0.32,0.16c-0.34,-0.18 -0.77,-0.18 -1.35,0.15c-1.38,0.79 -1.18,3.39 -0.79,4.24c0.43,0.93 2.8,4.19 3.61,5.11c0.19,0.21 0.42,0.36 0.67,0.46c-0.03,-0.01 -0.06,-0.02 -0.08,-0.03c0.71,0.44 1.95,0.97 3.16,0.22c0,0 0.77,-0.56 0.84,-1.15c1.31,0.73 3.12,-0.63 3.12,-0.63c0.85,-0.65 1.07,-1.38 1.04,-2.01l0,0c0.43,0.26 0.9,0.36 1.35,0.37c1.36,0.04 2.61,-0.76 2.61,-0.76c1.95,-1.11 2.34,-2.27 2.33,-3.04c1.01,0.63 2.26,0.16 2.26,0.16c2.21,-1.01 2.14,-3.15 2.14,-3.15z"/>
  </g>
  <path id="svg_20" fill="#26A69A" d="m107.95,123.99l12.84,0c0,0 0.56,-9.79 -15.16,-10.26c-15.72,-0.46 2.32,10.26 2.32,10.26z"/>
  <g id="hand_2_">
   <path id="svg_21" fill="url(#SVGID_5_)" d="m99.46,111.65c0.11,-2.84 2.23,-8.7 5,-9.19c0.17,-0.03 0.32,-0.11 0.41,-0.25c0.44,-0.67 1.85,-2.47 4.43,-1.05c0.96,0.53 1.3,1 1.14,1.68c0.12,0.14 0.34,0.31 0.66,0.18c1.04,-1.16 2.32,-1.4 3.81,-0.24c1.69,1.32 1.69,2.26 1.39,3.19l0.01,0.01c0,0 0.07,0.65 0.56,0.6c0.51,-0.44 1.12,-0.44 2.09,0.26c2.6,1.88 1.53,3.66 1.09,4.71c0.06,0.1 0.15,0.17 0.32,0.16c0.34,-0.18 0.77,-0.18 1.35,0.15c1.38,0.79 1.18,3.39 0.79,4.24c-0.43,0.93 -2.79,4.19 -3.61,5.11c-0.19,0.21 -0.42,0.36 -0.67,0.46c0.03,-0.01 0.06,-0.02 0.08,-0.03c-0.71,0.44 -1.95,0.97 -3.16,0.22c0,0 -0.77,-0.56 -0.84,-1.15c-1.31,0.73 -3.12,-0.63 -3.12,-0.63c-0.85,-0.65 -1.07,-1.38 -1.04,-2.01l0,0c-0.43,0.26 -0.9,0.36 -1.35,0.37c-1.36,0.04 -2.61,-0.76 -2.61,-0.76c-1.95,-1.11 -2.34,-2.27 -2.33,-3.04c-1.01,0.63 -2.26,0.16 -2.26,0.16c-2.21,-1 -2.14,-3.15 -2.14,-3.15z"/>
  </g>
  <path fill="#EDA600" d="m116.23,121.56c-0.17,-0.09 -0.33,-0.19 -0.48,-0.32c-0.02,-0.02 -0.05,-0.04 -0.07,-0.07c-0.28,-0.31 -0.36,-0.81 0.37,-1.81c2,-2.65 2.79,-4.63 2.79,-4.63c0.55,-1.39 0.35,-1.62 0.35,-1.62c-0.19,-0.31 -0.58,0.59 -0.58,0.59c-1.98,3.57 -3.34,5.13 -3.93,5.71c-0.03,0.02 -0.06,0.04 -0.09,0.05c-0.11,0.07 -0.23,0.14 -0.36,0.19c-0.05,0.02 -0.11,0.04 -0.16,0.06c-0.11,0.04 -0.23,0.06 -0.35,0.08c-0.06,0.01 -0.12,0.02 -0.19,0.02c-0.13,0 -0.26,-0.01 -0.4,-0.04c-0.06,-0.01 -0.12,-0.01 -0.18,-0.03c-0.2,-0.06 -0.41,-0.13 -0.62,-0.26c-0.1,-0.06 -0.19,-0.12 -0.28,-0.19c-0.04,-0.04 -0.09,-0.08 -0.13,-0.12c-0.04,-0.04 -0.09,-0.08 -0.13,-0.12c-0.05,-0.06 -0.1,-0.13 -0.15,-0.19c-0.02,-0.03 -0.05,-0.06 -0.07,-0.1c-0.05,-0.08 -0.09,-0.16 -0.13,-0.25c-0.01,-0.03 -0.03,-0.06 -0.04,-0.09c-0.04,-0.09 -0.06,-0.19 -0.08,-0.29c-0.01,-0.03 -0.02,-0.06 -0.03,-0.09c-0.02,-0.1 -0.02,-0.21 -0.03,-0.31c0,-0.04 -0.01,-0.07 -0.01,-0.1c0,-0.11 0.02,-0.22 0.04,-0.33c0.01,-0.04 0.01,-0.08 0.02,-0.13c0.02,-0.11 0.07,-0.22 0.11,-0.34c0.02,-0.05 0.03,-0.1 0.05,-0.14c2.28,-3.22 3.46,-6.03 3.46,-6.03c0.38,-0.78 0.52,-1.6 0.52,-1.6c-0.25,-0.46 -0.65,0.21 -0.65,0.21c-2.6,4.84 -4.14,6.78 -4.14,6.78s-1.21,2.11 -3.86,0.53c0,0 -1.31,-0.84 -1.53,-1.43c-0.19,-0.49 -0.31,-1.36 0.36,-2.6c0,0 1.59,-3.25 4.21,-7.34c0,0 0.17,-0.64 -0.42,-0.28c-0.46,0.28 -0.79,0.86 -0.95,1.04c0,0 -1.55,2.07 -3.8,6.2c0,0 -0.5,0.95 -1.08,1.42c-0.57,0.24 -1.29,0.15 -2.08,-0.44c-1.71,-1.28 -1.07,-3.07 -0.12,-4.91c0.52,-1 1.71,-3.25 2.84,-5.05c0.11,-0.04 0.22,-0.08 0.33,-0.1c0.36,-0.06 0.65,-0.25 0.83,-0.53c0.9,-1.37 0.19,-2.61 -1.07,-0.7c-3.16,0.54 -5.4,6.72 -5.51,9.77c0,0 0,0 0,0c0,0.11 -0.05,2.59 2.51,3.73c0.08,0.03 1.01,0.37 2.01,0.14c0.25,0.83 0.93,1.8 2.52,2.71c0.03,0.02 1.42,0.87 2.94,0.85c0.28,-0.01 0.56,-0.04 0.82,-0.11c0.16,0.52 0.5,1.09 1.18,1.61c0.08,0.06 1.64,1.23 3.14,0.93c0.29,0.46 0.71,0.78 0.82,0.86c0.46,0.29 0.95,0.44 1.45,0.48l0.45,0c0.64,-0.04 1.31,-0.26 1.97,-0.67c0.01,0 0.01,-0.01 0.02,-0.01c1.55,-1.06 3.78,-5.49 3.78,-5.94c0.01,0 -3.36,5.84 -6.19,5.35z" id="tone_1_"/>
  <g id="face">
   <path fill="#E59600" d="m91.33,50.43l-54.66,0c-5.89,0 -10.71,5.14 -10.71,11.41c0,6.28 4.82,11.41 10.71,11.41l54.65,0c5.89,0 10.71,-5.14 10.71,-11.41c0.01,-6.27 -4.81,-11.41 -10.7,-11.41z" id="ears"/>
   <path fill="#FFCA28" d="m64,11.07c-17.4,0 -33.52,18.61 -33.52,45.39c0,26.64 16.61,39.81 33.52,39.81s33.52,-13.17 33.52,-39.81c0,-26.78 -16.12,-45.39 -33.52,-45.39z" id="head"/>
   <g id="eyes_1_">
    <ellipse id="svg_22" fill="#404040" ry="5.1" rx="4.93" cy="58.81" cx="47.56"/>
    <ellipse id="svg_23" fill="#404040" ry="5.1" rx="4.93" cy="58.81" cx="80.44"/>
   </g>
   <path fill="#E59600" d="m67.86,68.06c-0.11,-0.04 -0.21,-0.07 -0.32,-0.08l-7.07,0c-0.11,0.01 -0.22,0.04 -0.32,0.08c-0.64,0.26 -0.99,0.92 -0.69,1.63s1.71,2.69 4.55,2.69c2.84,0 4.25,-1.99 4.55,-2.69c0.29,-0.71 -0.06,-1.37 -0.7,-1.63z" id="nose_1_"/>
   <g id="eyebrows_2_">
    <path id="svg_24" fill="#6D4C41" d="m40.01,50.7c2.99,-4.23 9.78,-4.63 13.67,-1.48c0.62,0.5 1.44,1.2 1.68,1.98c0.4,1.27 -0.82,2.26 -2.01,1.96c-0.76,-0.19 -1.47,-0.6 -2.22,-0.83c-1.37,-0.43 -2.36,-0.55 -3.59,-0.55c-1.82,-0.01 -2.99,0.22 -4.72,0.92c-0.71,0.29 -1.29,0.75 -2.1,0.41c-0.92,-0.39 -1.27,-1.57 -0.71,-2.41z"/>
    <path id="svg_25" fill="#6D4C41" d="m86.07,53.1c-0.29,-0.13 -0.57,-0.29 -0.86,-0.41c-1.78,-0.74 -2.79,-0.93 -4.72,-0.92c-1.7,0.01 -2.71,0.24 -4.04,0.69c-0.81,0.28 -1.84,0.98 -2.74,0.71c-1.32,-0.4 -1.28,-1.84 -0.56,-2.76c0.86,-1.08 2.04,-1.9 3.29,-2.44c2.9,-1.26 6.44,-1.08 9.17,0.55c0.89,0.53 1.86,1.26 2.4,2.18c0.79,1.31 -0.4,3.03 -1.94,2.4z"/>
   </g>
  </g>
  <path fill="#EDA600" d="m28.43,106.25c0,0 0,0 0,0c-0.12,-3.05 -2.36,-9.23 -5.51,-9.77c-1.25,-1.91 -1.97,-0.67 -1.07,0.7c0.18,0.28 0.48,0.46 0.83,0.53c0.11,0.02 0.22,0.06 0.33,0.1c1.13,1.8 2.32,4.06 2.84,5.05c0.95,1.83 1.58,3.62 -0.12,4.91c-0.79,0.59 -1.5,0.68 -2.08,0.44c-0.57,-0.47 -1.08,-1.42 -1.08,-1.42c-2.25,-4.13 -3.8,-6.2 -3.8,-6.2c-0.16,-0.18 -0.48,-0.75 -0.95,-1.04c-0.59,-0.36 -0.42,0.28 -0.42,0.28c2.62,4.08 4.21,7.34 4.21,7.34c0.68,1.24 0.56,2.11 0.36,2.6c-0.22,0.59 -1.53,1.43 -1.53,1.43c-2.64,1.58 -3.86,-0.53 -3.86,-0.53s-1.55,-1.94 -4.14,-6.78c0,0 -0.41,-0.67 -0.65,-0.21c0,0 0.14,0.82 0.52,1.6c0,0 1.18,2.8 3.46,6.03c0.02,0.05 0.03,0.1 0.05,0.14c0.04,0.11 0.08,0.23 0.11,0.34c0.01,0.04 0.01,0.08 0.02,0.13c0.02,0.11 0.04,0.22 0.04,0.33c0,0.04 -0.01,0.07 -0.01,0.1c0,0.11 -0.01,0.21 -0.03,0.31c-0.01,0.03 -0.02,0.06 -0.02,0.09c-0.02,0.1 -0.05,0.2 -0.09,0.29c-0.01,0.03 -0.03,0.06 -0.04,0.09c-0.04,0.08 -0.08,0.17 -0.13,0.25c-0.02,0.03 -0.05,0.06 -0.07,0.1c-0.05,0.07 -0.1,0.13 -0.15,0.19c-0.04,0.04 -0.09,0.08 -0.13,0.12c-0.04,0.04 -0.08,0.08 -0.13,0.12c-0.09,0.07 -0.19,0.14 -0.28,0.19c-0.22,0.12 -0.43,0.21 -0.62,0.26c-0.06,0.02 -0.12,0.02 -0.19,0.03c-0.14,0.02 -0.27,0.04 -0.4,0.04c-0.06,0 -0.13,-0.01 -0.19,-0.02c-0.12,-0.02 -0.24,-0.04 -0.35,-0.08c-0.05,-0.02 -0.11,-0.04 -0.16,-0.06c-0.12,-0.05 -0.24,-0.12 -0.36,-0.19c-0.03,-0.02 -0.06,-0.03 -0.09,-0.05c-0.59,-0.58 -1.95,-2.14 -3.93,-5.71c0,0 -0.39,-0.9 -0.58,-0.59c0,0 -0.2,0.24 0.35,1.62c0,0 0.79,1.98 2.79,4.63c0.73,1 0.65,1.5 0.37,1.81c-0.02,0.02 -0.05,0.04 -0.07,0.07c-0.14,0.13 -0.31,0.23 -0.48,0.32c-2.83,0.49 -6.2,-5.36 -6.2,-5.36c0,0.46 2.23,4.89 3.78,5.94c0.01,0 0.01,0.01 0.02,0.01c0.66,0.41 1.32,0.63 1.97,0.67l0.45,0c0.51,-0.04 1,-0.19 1.45,-0.48c0.11,-0.08 0.53,-0.41 0.82,-0.86c1.5,0.3 3.07,-0.87 3.14,-0.93c0.68,-0.52 1.02,-1.09 1.18,-1.61c0.26,0.07 0.53,0.11 0.82,0.11c1.52,0.03 2.91,-0.83 2.94,-0.85c1.59,-0.9 2.27,-1.88 2.52,-2.71c1,0.22 1.93,-0.11 2.01,-0.14c2.58,-1.13 2.53,-3.61 2.53,-3.72z" id="tone"/>
  <g id="computerscreen">
   <g id="svg_26">
    <path id="svg_27" fill="url(#SVGID_6_)" d="m109.99,123.99l0,-42.81c0,-3.58 -2.92,-6.5 -6.5,-6.5l-79,0c-3.58,0 -6.5,2.92 -6.5,6.5l0,42.82l92,-0.01l0,0z"/>
   </g>
   <path id="svg_28" fill="url(#SVGID_7_)" d="m78.99,123.99c-0.61,-1.93 -1.41,-4.11 -2.09,-6.43c-1.37,-4.66 -1.94,-12.44 -2.18,-17.87c-0.15,-3.43 -2.99,-6.14 -6.45,-6.14l-8.55,0c-3.46,0 -6.3,2.7 -6.45,6.14c-0.24,5.43 -0.81,13.21 -2.18,17.87c-0.68,2.32 -1.47,4.5 -2.09,6.43l29.99,0z"/>
  </g>
  <g id="hairGroup">
   <path fill="#543930" d="m64,4.03l0,0c-0.01,0 -0.01,0 -0.02,0s-0.01,0 -0.02,0l0,0c-45.43,0.24 -36.12,52.14 -36.12,52.14s2.04,5.35 2.97,7.71c0.13,0.34 0.63,0.3 0.71,-0.05c0.97,-4.34 4.46,-19.73 6.22,-24.41c1.04,-2.76 3.9,-4.36 6.79,-3.83c4.45,0.81 11.55,1.81 19.37,1.81c0.03,0 0.06,0 0.08,0s0.06,0 0.08,0c7.82,0 14.92,-1 19.37,-1.81c2.9,-0.53 5.76,1.08 6.79,3.83c1.75,4.66 5.22,19.96 6.2,24.36c0.08,0.36 0.58,0.39 0.71,0.05l2.98,-7.67c0.02,0.01 9.33,-51.89 -36.11,-52.13z" id="hair_7_"/>
   <path fill="url(#hairHighlights_1_)" d="m100.13,56.17c0,0 9.31,-51.9 -36.13,-52.14l0,0c-0.01,0 -0.01,0 -0.02,0l0,0c-0.01,0 -0.01,0 -0.02,0l0,0c-0.71,0 -1.4,0.02 -2.08,0.05c-1.35,0.06 -2.66,0.16 -3.92,0.31c-0.01,0 -0.03,0 -0.04,0c-0.09,0.01 -0.17,0.03 -0.26,0.04c-38.24,4.81 -29.82,51.74 -29.82,51.74l2.98,7.68c0.13,0.34 0.62,0.31 0.7,-0.05c0.98,-4.39 4.46,-19.71 6.22,-24.37c1.04,-2.76 3.9,-4.36 6.79,-3.83c4.45,0.81 11.55,1.81 19.37,1.81c0.03,0 0.06,0 0.08,0s0.06,0 0.08,0c7.82,0 14.92,-1 19.37,-1.81c2.9,-0.53 5.76,1.08 6.79,3.83c1.76,4.68 5.25,20.1 6.21,24.42c0.08,0.36 0.57,0.39 0.7,0.05c0.95,-2.36 3,-7.73 3,-7.73z" id="hairHighlights"/>
  </g>
 </g>
</svg>